# xmcd CD database file
#
# Track frame offsets:
#	150
#	15270
#	33687
#	52800
#	66057
#	74715
#	87560
#	104972
#	117180
#	127227
#	139637
#	148627
#	159125
#	174432
#	189377
#
# Disc length: 2773 seconds
#
# Revision: 0
# Processed by: cddbd v1.5.1PL2 Copyright (c) Steve Scherf et al.
# Submitted via: CDex 1.51
#
DISCID=d70ad30f
DTITLE=Various Artist - MINT SOUND GREATEST HITS VOL.2
DYEAR=1995
DGENRE=Rock
TTITLE0=ORIGINAL LOVE - クリスマスの日
TTITLE1=8 1/2 - 上海特急
TTITLE2=沖山優司 - A Fool On The Tour
TTITLE3=WOW WOW HIPPIES - Mirrors
TTITLE4=ブラボー小松 - Telstar
TTITLE5=THE GARDENERS - Work Song
TTITLE6=泉水敏郎 - Life Style
TTITLE7=THE STRIKES - I'm Gonna To Get My Seventeen
TTITLE8=THE PINKIES - You Can't Sit Down
TTITLE9=HIPPY HIPPY SHAKES - Sandy
TTITLE10=THE GATHER - 涙の贈り物
TTITLE11=THE PAISLEY BLUE! - I Saw Mommy Kissing Santa Claus
TTITLE12=THE ROCKIN' BISCUITS - Let's Go! Milky Way
TTITLE13=WINK SERVICE - Blue Christmas
TTITLE14=THE COLLECTORS - Chrismas Song
EXTD=YEAR: 1995
EXTT0=
EXTT1=
EXTT2=
EXTT3=
EXTT4=
EXTT5=
EXTT6=
EXTT7=
EXTT8=
EXTT9=
EXTT10=
EXTT11=
EXTT12=
EXTT13=
EXTT14=
PLAYORDER=
